<svg width="171" height="121" viewBox="0 0 171 121" fill="none" xmlns="http://www.w3.org/2000/svg">
<g clip-path="url(#clip0_134_717)">
<g filter="url(#filter0_bi_134_717)">
<path d="M171 6.1328V13.1619H111.013L107.185 6.34208C106.124 4.71789 104.388 3.74428 102.538 3.74428H79.643C77.8022 3.74428 76.08 4.69969 75.0138 6.31023L71.1137 12.2019L71.1091 12.2156C70.2662 13.4849 68.5075 13.4758 67.6737 12.2019L63.8465 6.34208C62.7849 4.71789 61.049 3.74428 59.1991 3.74428H36.3041C34.4588 3.74428 32.732 4.69969 31.6704 6.31023L27.7748 12.2019H0V6.14645C0 2.75248 2.57427 0 5.74541 0H165.113C168.275 0 170.841 2.74338 171 6.1328Z" fill="#278B8C" fill-opacity="0.5"/>
</g>
<g filter="url(#filter1_bi_134_717)">
<path d="M111.409 13.1664H70.4758L75.0776 6.11005C76.1438 4.50405 77.8706 3.5441 79.7113 3.5441H102.625C104.479 3.5441 106.215 4.51315 107.281 6.14189L111.409 13.1664Z" fill="#529D9E" fill-opacity="0.4"/>
</g>
<g filter="url(#filter2_bi_134_717)">
<path d="M71.1775 12.9617H71.1684C69.7559 12.8525 68.5668 13.2756 67.733 12.0017L63.9012 6.14189C62.8396 4.5177 61.0991 3.5441 59.2447 3.5441H36.336C34.4952 3.5441 32.7684 4.4995 31.7023 6.11005L27.8021 12.0017H0V115.013C0 118.316 2.50593 120.995 5.59505 120.995H165.41C168.499 120.995 171.005 118.316 171.005 115.013V12.9617H71.1775ZM164.567 114.28H6.43796V18.7487H164.567V114.28Z" fill="#257F81" fill-opacity="0.71"/>
</g>
<g filter="url(#filter3_bi_134_717)">
<path d="M164.567 18.7487H6.43796V114.28H164.567V18.7487Z" fill="#225E6B" fill-opacity="0.4"/>
</g>
<g filter="url(#filter4_bi_134_717)">
<path d="M9.54075 6.10095C9.54075 7.28838 8.57483 8.25289 7.3811 8.25289C6.19192 8.25289 5.226 7.28838 5.226 6.10095C5.226 4.90896 6.19192 3.94446 7.3811 3.94446C8.57483 3.94446 9.54075 4.90896 9.54075 6.10095Z" fill="#B4144D"/>
<path d="M17.3592 6.10095C17.3592 7.28838 16.3933 8.25289 15.2041 8.25289C14.015 8.25289 13.049 7.28838 13.049 6.10095C13.049 4.90896 14.015 3.94446 15.2041 3.94446C16.3888 3.94446 17.3592 4.90896 17.3592 6.10095Z" fill="#C1C520"/>
<path d="M25.1777 6.10095C25.1777 7.28838 24.2118 8.25289 23.0226 8.25289C21.8289 8.25289 20.863 7.28838 20.863 6.10095C20.863 4.90896 21.8289 3.94446 23.0226 3.94446C24.2118 3.94446 25.1777 4.90896 25.1777 6.10095Z" fill="#178837"/>
</g>
<g filter="url(#filter5_bi_134_717)">
<path d="M55.4949 31.4101H15.8375C14.8397 31.4101 14.0332 30.6049 14.0332 29.6085C14.0332 28.6122 14.8397 27.8069 15.8375 27.8069H55.4949C56.4927 27.8069 57.2992 28.6122 57.2992 29.6085C57.2992 30.6049 56.4927 31.4101 55.4949 31.4101Z" fill="#F5F9FA" fill-opacity="0.4"/>
<path d="M115.336 31.4101H75.679C74.6812 31.4101 73.8748 30.6049 73.8748 29.6085C73.8748 28.6122 74.6812 27.8069 75.679 27.8069H115.336C116.334 27.8069 117.141 28.6122 117.141 29.6085C117.141 30.6049 116.33 31.4101 115.336 31.4101Z" fill="#F5F9FA" fill-opacity="0.4"/>
<path d="M37.5661 42.0788H15.6962C14.7804 42.0788 14.0332 41.3373 14.0332 40.4182V40.1362C14.0332 39.2217 14.7759 38.4756 15.6962 38.4756H37.5661C38.4819 38.4756 39.2292 39.2172 39.2292 40.1362V40.4182C39.2292 41.3373 38.4865 42.0788 37.5661 42.0788Z" fill="#F5F9FA" fill-opacity="0.4"/>
<path d="M72.4168 42.0788H50.5469C49.6311 42.0788 48.8838 41.3373 48.8838 40.4182V40.1362C48.8838 39.2217 49.6265 38.4756 50.5469 38.4756H72.4168C73.3326 38.4756 74.0798 39.2172 74.0798 40.1362V40.4182C74.0798 41.3373 73.3326 42.0788 72.4168 42.0788Z" fill="#F5F9FA" fill-opacity="0.4"/>
<path d="M34.7823 49.6948H15.6005C14.7349 49.6948 14.0378 48.9942 14.0378 48.1343V47.6566C14.0378 46.7922 14.7394 46.0961 15.6005 46.0961H34.7823C35.648 46.0961 36.3451 46.7967 36.3451 47.6566V48.1343C36.3451 48.9987 35.6434 49.6948 34.7823 49.6948Z" fill="#F5F9FA" fill-opacity="0.4"/>
<path d="M92.2865 49.6948H46.6968C45.699 49.6948 44.8926 48.8895 44.8926 47.8932C44.8926 46.8968 45.699 46.0916 46.6968 46.0916H92.2865C93.2843 46.0916 94.0908 46.8968 94.0908 47.8932C94.0908 48.8895 93.2843 49.6948 92.2865 49.6948Z" fill="#F5F9FA" fill-opacity="0.4"/>
<path d="M47.6126 60.227H26.8134C25.9159 60.227 25.1914 59.5036 25.1914 58.6074V58.248C25.1914 57.3517 25.9159 56.6283 26.8134 56.6283H47.6126C48.5102 56.6283 49.2347 57.3517 49.2347 58.248V58.6074C49.2347 59.4991 48.5102 60.227 47.6126 60.227Z" fill="#F5F9FA" fill-opacity="0.4"/>
<path d="M122.412 60.227H68.1521C67.1543 60.227 66.3479 59.4218 66.3479 58.4254C66.3479 57.4291 67.1543 56.6238 68.1521 56.6238H122.412C123.41 56.6238 124.217 57.4291 124.217 58.4254C124.217 59.4218 123.406 60.227 122.412 60.227Z" fill="#F5F9FA" fill-opacity="0.4"/>
<path d="M122.412 42.0788H80.2034C79.2056 42.0788 78.3991 41.2736 78.3991 40.2772C78.3991 39.2809 79.2056 38.4756 80.2034 38.4756H122.412C123.41 38.4756 124.217 39.2809 124.217 40.2772C124.217 41.2736 123.406 42.0788 122.412 42.0788Z" fill="#F5F9FA" fill-opacity="0.4"/>
<path d="M53.6542 68.398H15.8375C14.8397 68.398 14.0332 67.5927 14.0332 66.5964C14.0332 65.6 14.8397 64.7948 15.8375 64.7948H53.6496C54.6475 64.7948 55.4539 65.6 55.4539 66.5964C55.4539 67.5927 54.6475 68.398 53.6542 68.398Z" fill="#F5F9FA" fill-opacity="0.4"/>
<path d="M76.203 77.9566H38.3908C37.393 77.9566 36.5866 77.1514 36.5866 76.155C36.5866 75.1587 37.393 74.3534 38.3908 74.3534H76.203C77.2008 74.3534 78.0073 75.1587 78.0073 76.155C78.0073 77.1514 77.2008 77.9566 76.203 77.9566Z" fill="#F5F9FA" fill-opacity="0.4"/>
<path d="M87.9626 68.398H70.9679C70.1523 68.398 69.4917 67.7383 69.4917 66.924V66.2734C69.4917 65.459 70.1523 64.7993 70.9679 64.7993H87.9626C88.7782 64.7993 89.4389 65.459 89.4389 66.2734V66.924C89.4434 67.7383 88.7828 68.398 87.9626 68.398Z" fill="#F5F9FA" fill-opacity="0.4"/>
<path d="M155.163 68.398H100.228C99.2302 68.398 98.4238 67.5927 98.4238 66.5964C98.4238 65.6 99.2302 64.7948 100.228 64.7948H155.163C156.16 64.7948 156.967 65.6 156.967 66.5964C156.967 67.5927 156.16 68.398 155.163 68.398Z" fill="#F5F9FA" fill-opacity="0.4"/>
<path d="M55.4949 101.619H15.8375C14.8397 101.619 14.0332 102.424 14.0332 103.421C14.0332 104.417 14.8397 105.222 15.8375 105.222H55.4949C56.4927 105.222 57.2992 104.417 57.2992 103.421C57.2992 102.424 56.4927 101.619 55.4949 101.619Z" fill="#F5F9FA" fill-opacity="0.4"/>
<path d="M115.336 101.619H75.679C74.6812 101.619 73.8748 102.424 73.8748 103.421C73.8748 104.417 74.6812 105.222 75.679 105.222H115.336C116.334 105.222 117.141 104.417 117.141 103.421C117.141 102.424 116.33 101.619 115.336 101.619Z" fill="#F5F9FA" fill-opacity="0.4"/>
<path d="M37.5661 90.9502H15.6962C14.7804 90.9502 14.0332 91.6918 14.0332 92.6108V92.8929C14.0332 93.8073 14.7759 94.5534 15.6962 94.5534H37.5661C38.4819 94.5534 39.2292 93.8119 39.2292 92.8929V92.6108C39.2292 91.6963 38.4865 90.9502 37.5661 90.9502Z" fill="#F5F9FA" fill-opacity="0.4"/>
<path d="M72.4168 90.9502H50.5469C49.6311 90.9502 48.8838 91.6918 48.8838 92.6108V92.8929C48.8838 93.8073 49.6265 94.5534 50.5469 94.5534H72.4168C73.3326 94.5534 74.0798 93.8119 74.0798 92.8929V92.6108C74.0798 91.6963 73.3326 90.9502 72.4168 90.9502Z" fill="#F5F9FA" fill-opacity="0.4"/>
<path d="M34.7824 83.3342H15.6006C14.735 83.3342 14.0379 84.0349 14.0379 84.8947V85.3724C14.0379 86.2368 14.7395 86.9329 15.6006 86.9329H34.7824C35.6481 86.9329 36.3452 86.2323 36.3452 85.3724V84.8947C36.3452 84.0303 35.6435 83.3342 34.7824 83.3342Z" fill="#F5F9FA" fill-opacity="0.4"/>
<path d="M92.2865 83.3342H46.6968C45.699 83.3342 44.8926 84.1395 44.8926 85.1359C44.8926 86.1322 45.699 86.9375 46.6968 86.9375H92.2865C93.2843 86.9375 94.0908 86.1322 94.0908 85.1359C94.0908 84.1395 93.2843 83.3342 92.2865 83.3342Z" fill="#F5F9FA" fill-opacity="0.4"/>
<path d="M122.412 90.9502H80.2034C79.2056 90.9502 78.3991 91.7555 78.3991 92.7518C78.3991 93.7482 79.2056 94.5534 80.2034 94.5534H122.412C123.41 94.5534 124.217 93.7482 124.217 92.7518C124.217 91.76 123.406 90.9502 122.412 90.9502Z" fill="#F5F9FA" fill-opacity="0.4"/>
</g>
</g>
<defs>
<filter id="filter0_bi_134_717" x="-4" y="-4" width="179" height="21.1624" filterUnits="userSpaceOnUse" color-interpolation-filters="sRGB">
<feFlood flood-opacity="0" result="BackgroundImageFix"/>
<feGaussianBlur in="BackgroundImage" stdDeviation="2"/>
<feComposite in2="SourceAlpha" operator="in" result="effect1_backgroundBlur_134_717"/>
<feBlend mode="normal" in="SourceGraphic" in2="effect1_backgroundBlur_134_717" result="shape"/>
<feColorMatrix in="SourceAlpha" type="matrix" values="0 0 0 0 0 0 0 0 0 0 0 0 0 0 0 0 0 0 127 0" result="hardAlpha"/>
<feOffset dy="0.2"/>
<feGaussianBlur stdDeviation="1"/>
<feComposite in2="hardAlpha" operator="arithmetic" k2="-1" k3="1"/>
<feColorMatrix type="matrix" values="0 0 0 0 1 0 0 0 0 1 0 0 0 0 1 0 0 0 0.8 0"/>
<feBlend mode="normal" in2="shape" result="effect2_innerShadow_134_717"/>
</filter>
<filter id="filter1_bi_134_717" x="66.4758" y="-0.455902" width="48.9332" height="17.6223" filterUnits="userSpaceOnUse" color-interpolation-filters="sRGB">
<feFlood flood-opacity="0" result="BackgroundImageFix"/>
<feGaussianBlur in="BackgroundImage" stdDeviation="2"/>
<feComposite in2="SourceAlpha" operator="in" result="effect1_backgroundBlur_134_717"/>
<feBlend mode="normal" in="SourceGraphic" in2="effect1_backgroundBlur_134_717" result="shape"/>
<feColorMatrix in="SourceAlpha" type="matrix" values="0 0 0 0 0 0 0 0 0 0 0 0 0 0 0 0 0 0 127 0" result="hardAlpha"/>
<feOffset dy="0.2"/>
<feGaussianBlur stdDeviation="1"/>
<feComposite in2="hardAlpha" operator="arithmetic" k2="-1" k3="1"/>
<feColorMatrix type="matrix" values="0 0 0 0 1 0 0 0 0 1 0 0 0 0 1 0 0 0 0.8 0"/>
<feBlend mode="normal" in2="shape" result="effect2_innerShadow_134_717"/>
</filter>
<filter id="filter2_bi_134_717" x="-4" y="-0.455902" width="179.005" height="125.451" filterUnits="userSpaceOnUse" color-interpolation-filters="sRGB">
<feFlood flood-opacity="0" result="BackgroundImageFix"/>
<feGaussianBlur in="BackgroundImage" stdDeviation="2"/>
<feComposite in2="SourceAlpha" operator="in" result="effect1_backgroundBlur_134_717"/>
<feBlend mode="normal" in="SourceGraphic" in2="effect1_backgroundBlur_134_717" result="shape"/>
<feColorMatrix in="SourceAlpha" type="matrix" values="0 0 0 0 0 0 0 0 0 0 0 0 0 0 0 0 0 0 127 0" result="hardAlpha"/>
<feOffset dy="0.2"/>
<feGaussianBlur stdDeviation="1"/>
<feComposite in2="hardAlpha" operator="arithmetic" k2="-1" k3="1"/>
<feColorMatrix type="matrix" values="0 0 0 0 1 0 0 0 0 1 0 0 0 0 1 0 0 0 0.8 0"/>
<feBlend mode="normal" in2="shape" result="effect2_innerShadow_134_717"/>
</filter>
<filter id="filter3_bi_134_717" x="2.43796" y="14.7487" width="166.129" height="103.532" filterUnits="userSpaceOnUse" color-interpolation-filters="sRGB">
<feFlood flood-opacity="0" result="BackgroundImageFix"/>
<feGaussianBlur in="BackgroundImage" stdDeviation="2"/>
<feComposite in2="SourceAlpha" operator="in" result="effect1_backgroundBlur_134_717"/>
<feBlend mode="normal" in="SourceGraphic" in2="effect1_backgroundBlur_134_717" result="shape"/>
<feColorMatrix in="SourceAlpha" type="matrix" values="0 0 0 0 0 0 0 0 0 0 0 0 0 0 0 0 0 0 127 0" result="hardAlpha"/>
<feOffset dy="0.2"/>
<feGaussianBlur stdDeviation="1"/>
<feComposite in2="hardAlpha" operator="arithmetic" k2="-1" k3="1"/>
<feColorMatrix type="matrix" values="0 0 0 0 1 0 0 0 0 1 0 0 0 0 1 0 0 0 0.8 0"/>
<feBlend mode="normal" in2="shape" result="effect2_innerShadow_134_717"/>
</filter>
<filter id="filter4_bi_134_717" x="1.226" y="-0.055542" width="27.9517" height="12.3084" filterUnits="userSpaceOnUse" color-interpolation-filters="sRGB">
<feFlood flood-opacity="0" result="BackgroundImageFix"/>
<feGaussianBlur in="BackgroundImage" stdDeviation="2"/>
<feComposite in2="SourceAlpha" operator="in" result="effect1_backgroundBlur_134_717"/>
<feBlend mode="normal" in="SourceGraphic" in2="effect1_backgroundBlur_134_717" result="shape"/>
<feColorMatrix in="SourceAlpha" type="matrix" values="0 0 0 0 0 0 0 0 0 0 0 0 0 0 0 0 0 0 127 0" result="hardAlpha"/>
<feOffset dy="0.2"/>
<feGaussianBlur stdDeviation="1"/>
<feComposite in2="hardAlpha" operator="arithmetic" k2="-1" k3="1"/>
<feColorMatrix type="matrix" values="0 0 0 0 1 0 0 0 0 1 0 0 0 0 1 0 0 0 0.8 0"/>
<feBlend mode="normal" in2="shape" result="effect2_innerShadow_134_717"/>
</filter>
<filter id="filter5_bi_134_717" x="10.0332" y="23.8069" width="150.934" height="85.4153" filterUnits="userSpaceOnUse" color-interpolation-filters="sRGB">
<feFlood flood-opacity="0" result="BackgroundImageFix"/>
<feGaussianBlur in="BackgroundImage" stdDeviation="2"/>
<feComposite in2="SourceAlpha" operator="in" result="effect1_backgroundBlur_134_717"/>
<feBlend mode="normal" in="SourceGraphic" in2="effect1_backgroundBlur_134_717" result="shape"/>
<feColorMatrix in="SourceAlpha" type="matrix" values="0 0 0 0 0 0 0 0 0 0 0 0 0 0 0 0 0 0 127 0" result="hardAlpha"/>
<feOffset dy="0.2"/>
<feGaussianBlur stdDeviation="1"/>
<feComposite in2="hardAlpha" operator="arithmetic" k2="-1" k3="1"/>
<feColorMatrix type="matrix" values="0 0 0 0 1 0 0 0 0 1 0 0 0 0 1 0 0 0 0.8 0"/>
<feBlend mode="normal" in2="shape" result="effect2_innerShadow_134_717"/>
</filter>
<clipPath id="clip0_134_717">
<rect width="171" height="121" fill="white"/>
</clipPath>
</defs>
</svg>
