<?xml version="1.0" encoding="utf-8"?>
<!-- Generator: Adobe Illustrator 25.0.1, SVG Export Plug-In . SVG Version: 6.00 Build 0)  -->
<svg version="1.1"
	 id="svg1185" xmlns:cc="http://creativecommons.org/ns#" xmlns:dc="http://purl.org/dc/elements/1.1/" xmlns:rdf="http://www.w3.org/1999/02/22-rdf-syntax-ns#" xmlns:svg="http://www.w3.org/2000/svg"
	 xmlns="http://www.w3.org/2000/svg" xmlns:xlink="http://www.w3.org/1999/xlink" x="0px" y="0px" viewBox="0 0 117.8 75"
	 style="enable-background:new 0 0 117.8 75;" xml:space="preserve">
<style type="text/css">
	.st0{fill:#FFFFFF;}
</style>
<g>
	<path id="path832" class="st0" d="M61.9,29.9L87.2,75l12.5-22.3L75.8,10.2H48.1L36.6,30.7L25,10.2H0L36.3,75l0.2-0.3l0.1,0.3
		L61.9,29.9z"/>
	<path id="path1166" class="st0" d="M99.3,23.3l0.9,0.9c0.8,0.6,1.7,1.1,2.5,1.4c1.3,0.6,2.5,0.9,3.7,0.9c1.6,0,3-0.4,4-1.3
		c1.1-0.9,1.6-2,1.6-3.3c0-1.6-0.6-2.8-1.9-3.7c-1.3-0.8-2.8-1.2-4.8-1.2h-2.2l-1.2-2.9l5.6-6.9c0.5-0.6,1.1-1.1,1.7-1.7l0.7-0.7
		H97.7V0h19.2v3.5l-7.6,8.9c2.4,0.4,4.3,1.3,5.9,2.8c1.8,1.7,2.7,3.8,2.7,6.4c0,2.8-1,5.2-2.9,7.1c-2.1,2.1-4.8,3.2-8.1,3.2
		c-2,0-3.9-0.4-5.6-1.1c-1.3-0.5-2.5-1.2-3.5-2l-1.2-1.1L99.3,23.3z"/>
</g>
</svg>
